<svg xmlns="http://www.w3.org/2000/svg" viewBox="0 0 1920 1080">
  <defs>
    <linearGradient id="grad1" x1="0%" y1="0%" x2="100%" y2="100%">
      <stop offset="0%" style="stop-color:#0f172a;stop-opacity:1" />
      <stop offset="50%" style="stop-color:#1e293b;stop-opacity:1" />
      <stop offset="100%" style="stop-color:#0f172a;stop-opacity:1" />
    </linearGradient>
    <filter id="glow">
      <feGaussianBlur stdDeviation="3" result="coloredBlur"/>
      <feMerge>
        <feMergeNode in="coloredBlur"/>
        <feMergeNode in="SourceGraphic"/>
      </feMerge>
    </filter>
  </defs>
  <rect width="100%" height="100%" fill="url(#grad1)"/>
  <!-- Neural network nodes -->
  <g filter="url(#glow)" opacity="0.3">
    <circle cx="200" cy="200" r="4" fill="#06b6d4"/>
    <circle cx="400" cy="150" r="3" fill="#06b6d4"/>
    <circle cx="600" cy="250" r="5" fill="#06b6d4"/>
    <circle cx="800" cy="180" r="4" fill="#06b6d4"/>
    <circle cx="1000" cy="220" r="3" fill="#06b6d4"/>
    <circle cx="1200" cy="160" r="5" fill="#06b6d4"/>
    <circle cx="1400" cy="240" r="4" fill="#06b6d4"/>
    <circle cx="1600" cy="190" r="3" fill="#06b6d4"/>
    <circle cx="300" cy="400" r="5" fill="#8b5cf6"/>
    <circle cx="500" cy="450" r="4" fill="#8b5cf6"/>
    <circle cx="700" cy="380" r="3" fill="#8b5cf6"/>
    <circle cx="900" cy="420" r="5" fill="#8b5cf6"/>
    <circle cx="1100" cy="360" r="4" fill="#8b5cf6"/>
    <circle cx="1300" cy="440" r="3" fill="#8b5cf6"/>
    <circle cx="1500" cy="390" r="5" fill="#8b5cf6"/>
    <circle cx="250" cy="600" r="4" fill="#06b6d4"/>
    <circle cx="450" cy="650" r="3" fill="#06b6d4"/>
    <circle cx="650" cy="580" r="5" fill="#06b6d4"/>
    <circle cx="850" cy="620" r="4" fill="#06b6d4"/>
    <circle cx="1050" cy="560" r="3" fill="#06b6d4"/>
    <circle cx="1250" cy="640" r="5" fill="#06b6d4"/>
    <circle cx="1450" cy="590" r="4" fill="#06b6d4"/>
    <circle cx="1650" cy="630" r="3" fill="#06b6d4"/>
    <circle cx="350" cy="800" r="3" fill="#8b5cf6"/>
    <circle cx="550" cy="850" r="5" fill="#8b5cf6"/>
    <circle cx="750" cy="780" r="4" fill="#8b5cf6"/>
    <circle cx="950" cy="820" r="3" fill="#8b5cf6"/>
    <circle cx="1150" cy="760" r="5" fill="#8b5cf6"/>
    <circle cx="1350" cy="840" r="4" fill="#8b5cf6"/>
    <circle cx="1550" cy="790" r="3" fill="#8b5cf6"/>
  </g>
  <!-- Connection lines -->
  <g stroke="#06b6d4" stroke-width="0.5" opacity="0.15">
    <line x1="200" y1="200" x2="400" y2="150"/>
    <line x1="400" y1="150" x2="600" y2="250"/>
    <line x1="600" y1="250" x2="800" y2="180"/>
    <line x1="800" y1="180" x2="1000" y2="220"/>
    <line x1="1000" y1="220" x2="1200" y2="160"/>
    <line x1="1200" y1="160" x2="1400" y2="240"/>
    <line x1="200" y1="200" x2="300" y2="400"/>
    <line x1="400" y1="150" x2="500" y2="450"/>
    <line x1="600" y1="250" x2="700" y2="380"/>
    <line x1="800" y1="180" x2="900" y2="420"/>
    <line x1="300" y1="400" x2="500" y2="450"/>
    <line x1="500" y1="450" x2="700" y2="380"/>
    <line x1="700" y1="380" x2="900" y2="420"/>
    <line x1="900" y1="420" x2="1100" y2="360"/>
    <line x1="1100" y1="360" x2="1300" y2="440"/>
    <line x1="300" y1="400" x2="250" y2="600"/>
    <line x1="500" y1="450" x2="450" y2="650"/>
    <line x1="700" y1="380" x2="650" y2="580"/>
    <line x1="250" y1="600" x2="450" y2="650"/>
    <line x1="450" y1="650" x2="650" y2="580"/>
    <line x1="650" y1="580" x2="850" y2="620"/>
    <line x1="850" y1="620" x2="1050" y2="560"/>
    <line x1="250" y1="600" x2="350" y2="800"/>
    <line x1="450" y1="650" x2="550" y2="850"/>
    <line x1="350" y1="800" x2="550" y2="850"/>
    <line x1="550" y1="850" x2="750" y2="780"/>
    <line x1="750" y1="780" x2="950" y2="820"/>
  </g>
</svg>
